<mxfile host="app.diagrams.net" modified="2023-04-21T14:07:40.993Z" agent="Mozilla/5.0 (Windows NT 10.0; Win64; x64) AppleWebKit/537.36 (KHTML, like Gecko) Chrome/112.0.0.0 Safari/537.36" etag="LPtlbpi652NfM_8di7SO" version="21.2.1" type="device">
  <diagram name="Page-1" id="03018318-947c-dd8e-b7a3-06fadd420f32">
    <mxGraphModel dx="1034" dy="430" grid="1" gridSize="10" guides="1" tooltips="1" connect="1" arrows="1" fold="1" page="1" pageScale="1" pageWidth="1100" pageHeight="850" background="none" math="0" shadow="0">
      <root>
        <mxCell id="0" />
        <mxCell id="1" parent="0" />
        <mxCell id="677b7b8949515195-1" value="" style="whiteSpace=wrap;html=1;rounded=0;shadow=0;labelBackgroundColor=none;strokeColor=#000000;strokeWidth=1;fillColor=none;fontFamily=Verdana;fontSize=12;fontColor=#000000;align=center;comic=1;" parent="1" vertex="1">
          <mxGeometry x="10" y="10" width="1060" height="730" as="geometry" />
        </mxCell>
        <mxCell id="677b7b8949515195-8" value="" style="whiteSpace=wrap;html=1;rounded=0;shadow=0;labelBackgroundColor=none;strokeWidth=1;fillColor=none;fontFamily=Verdana;fontSize=12;align=center;comic=1;" parent="1" vertex="1">
          <mxGeometry x="30" y="30" width="140" height="700" as="geometry" />
        </mxCell>
        <mxCell id="677b7b8949515195-15" value="Reviews/testimonials" style="whiteSpace=wrap;html=1;rounded=0;shadow=0;labelBackgroundColor=none;strokeWidth=1;fillColor=none;fontFamily=Verdana;fontSize=12;align=center;verticalAlign=top;spacing=10;comic=1;" parent="1" vertex="1">
          <mxGeometry x="180" y="447" width="390" height="180" as="geometry" />
        </mxCell>
        <mxCell id="677b7b8949515195-26" value="&lt;div&gt;Opening Hours&lt;/div&gt;&lt;div&gt;Phone Number&lt;/div&gt;&lt;div&gt;Map&lt;br&gt;&lt;/div&gt;" style="whiteSpace=wrap;html=1;rounded=0;shadow=0;labelBackgroundColor=none;strokeWidth=1;fillColor=none;fontFamily=Verdana;fontSize=12;align=center;comic=1;" parent="1" vertex="1">
          <mxGeometry x="820" y="447" width="230" height="180" as="geometry" />
        </mxCell>
        <mxCell id="qz_svecnsdqs3by7-r_0-2" value="Vet Clinic Name" style="whiteSpace=wrap;html=1;rounded=0;shadow=0;labelBackgroundColor=none;strokeWidth=1;fontFamily=Verdana;fontSize=28;align=center;comic=1;" parent="1" vertex="1">
          <mxGeometry x="180" y="30" width="680" height="100" as="geometry" />
        </mxCell>
        <mxCell id="qz_svecnsdqs3by7-r_0-7" value="Picture of us as vets" style="whiteSpace=wrap;html=1;rounded=0;shadow=0;labelBackgroundColor=none;strokeWidth=1;fillColor=none;fontFamily=Verdana;fontSize=12;align=center;comic=1;" parent="1" vertex="1">
          <mxGeometry x="580" y="447" width="230" height="180" as="geometry" />
        </mxCell>
        <mxCell id="qz_svecnsdqs3by7-r_0-8" value="" style="whiteSpace=wrap;html=1;rounded=0;shadow=0;labelBackgroundColor=none;strokeWidth=1;fontFamily=Verdana;fontSize=28;align=center;comic=1;" parent="1" vertex="1">
          <mxGeometry x="180" y="640" width="870" height="60" as="geometry" />
        </mxCell>
        <mxCell id="qz_svecnsdqs3by7-r_0-9" value="" style="verticalLabelPosition=bottom;shadow=0;dashed=0;align=center;html=1;verticalAlign=top;strokeWidth=1;shape=mxgraph.mockup.misc.help_icon;" parent="1" vertex="1">
          <mxGeometry x="730" y="654" width="32" height="32" as="geometry" />
        </mxCell>
        <mxCell id="qz_svecnsdqs3by7-r_0-10" value="" style="verticalLabelPosition=bottom;shadow=0;dashed=0;align=center;html=1;verticalAlign=top;strokeWidth=1;shape=mxgraph.mockup.misc.help_icon;" parent="1" vertex="1">
          <mxGeometry x="679" y="654" width="32" height="32" as="geometry" />
        </mxCell>
        <mxCell id="qz_svecnsdqs3by7-r_0-11" value="" style="verticalLabelPosition=bottom;shadow=0;dashed=0;align=center;html=1;verticalAlign=top;strokeWidth=1;shape=mxgraph.mockup.misc.help_icon;" parent="1" vertex="1">
          <mxGeometry x="778" y="654" width="32" height="32" as="geometry" />
        </mxCell>
        <mxCell id="qz_svecnsdqs3by7-r_0-12" value="Cookie Policy" style="text;html=1;points=[];align=left;verticalAlign=top;spacingTop=-4;fontSize=14;fontFamily=Verdana" parent="1" vertex="1">
          <mxGeometry x="190" y="649" width="100" height="20" as="geometry" />
        </mxCell>
        <mxCell id="qz_svecnsdqs3by7-r_0-13" value="Vet Accreditation, Company Registration, Copyright, Registered Address" style="text;html=1;points=[];align=left;verticalAlign=top;spacingTop=-4;fontSize=14;fontFamily=Verdana;fillColor=#f5f5f5;fontColor=#333333;strokeColor=none;" parent="1" vertex="1">
          <mxGeometry x="180" y="710" width="860" height="20" as="geometry" />
        </mxCell>
        <mxCell id="qz_svecnsdqs3by7-r_0-14" value="Privacy Policy" style="text;html=1;points=[];align=left;verticalAlign=top;spacingTop=-4;fontSize=14;fontFamily=Verdana" parent="1" vertex="1">
          <mxGeometry x="190" y="669" width="100" height="20" as="geometry" />
        </mxCell>
        <mxCell id="qz_svecnsdqs3by7-r_0-15" value="Terms of Use" style="text;html=1;points=[];align=left;verticalAlign=top;spacingTop=-4;fontSize=14;fontFamily=Verdana" parent="1" vertex="1">
          <mxGeometry x="370" y="649" width="100" height="20" as="geometry" />
        </mxCell>
        <mxCell id="qz_svecnsdqs3by7-r_0-16" value="Complaints Policy" style="text;html=1;points=[];align=left;verticalAlign=top;spacingTop=-4;fontSize=14;fontFamily=Verdana" parent="1" vertex="1">
          <mxGeometry x="370" y="669" width="100" height="20" as="geometry" />
        </mxCell>
        <mxCell id="qz_svecnsdqs3by7-r_0-17" value="&lt;div align=&quot;center&quot;&gt;&lt;font style=&quot;font-size: 14px;&quot;&gt;Logout&lt;/font&gt;&lt;/div&gt;" style="whiteSpace=wrap;html=1;rounded=0;shadow=0;labelBackgroundColor=none;strokeWidth=1;fontFamily=Verdana;fontSize=28;align=center;comic=1;" parent="1" vertex="1">
          <mxGeometry x="900" y="40" width="120" height="80" as="geometry" />
        </mxCell>
        <mxCell id="qz_svecnsdqs3by7-r_0-18" value="&lt;font style=&quot;font-size: 14px;&quot;&gt;Orders&lt;/font&gt;" style="whiteSpace=wrap;html=1;rounded=0;shadow=0;labelBackgroundColor=none;strokeWidth=1;fontFamily=Verdana;fontSize=28;align=center;comic=1;" parent="1" vertex="1">
          <mxGeometry x="190" y="140" width="140" height="30" as="geometry" />
        </mxCell>
        <mxCell id="qz_svecnsdqs3by7-r_0-19" value="Home" style="text;html=1;points=[];align=left;verticalAlign=top;spacingTop=-4;fontSize=14;fontFamily=Verdana" parent="1" vertex="1">
          <mxGeometry x="40" y="160" width="110" height="20" as="geometry" />
        </mxCell>
        <mxCell id="qz_svecnsdqs3by7-r_0-20" value="About Us" style="text;html=1;points=[];align=left;verticalAlign=top;spacingTop=-4;fontSize=14;fontFamily=Verdana" parent="1" vertex="1">
          <mxGeometry x="40" y="190" width="110" height="20" as="geometry" />
        </mxCell>
        <mxCell id="qz_svecnsdqs3by7-r_0-21" value="Products" style="text;html=1;points=[];align=left;verticalAlign=top;spacingTop=-4;fontSize=14;fontFamily=Verdana" parent="1" vertex="1">
          <mxGeometry x="40" y="220" width="110" height="20" as="geometry" />
        </mxCell>
        <mxCell id="qz_svecnsdqs3by7-r_0-22" value="Account" style="text;html=1;points=[];align=left;verticalAlign=top;spacingTop=-4;fontSize=14;fontFamily=Verdana" parent="1" vertex="1">
          <mxGeometry x="40" y="250" width="110" height="20" as="geometry" />
        </mxCell>
        <mxCell id="qz_svecnsdqs3by7-r_0-23" value="Pet Advice" style="text;html=1;points=[];align=left;verticalAlign=top;spacingTop=-4;fontSize=14;fontFamily=Verdana" parent="1" vertex="1">
          <mxGeometry x="40" y="280" width="110" height="20" as="geometry" />
        </mxCell>
        <mxCell id="qz_svecnsdqs3by7-r_0-25" value="Admin" style="text;html=1;points=[];align=left;verticalAlign=top;spacingTop=-4;fontSize=14;fontFamily=Verdana" parent="1" vertex="1">
          <mxGeometry x="40" y="690" width="110" height="20" as="geometry" />
        </mxCell>
        <mxCell id="fUc4yykez93ghkNxuhbC-1" value="LOGO" style="whiteSpace=wrap;html=1;rounded=0;shadow=0;labelBackgroundColor=none;strokeWidth=1;fontFamily=Verdana;fontSize=28;align=center;comic=1;" parent="1" vertex="1">
          <mxGeometry x="50" y="60" width="120" height="80" as="geometry" />
        </mxCell>
        <mxCell id="vINaqY3IlHrTI5j5xs9M-1" value="" style="shape=table;childLayout=tableLayout;startSize=0;fillColor=none;collapsible=0;recursiveResize=0;expand=0;" vertex="1" parent="1">
          <mxGeometry x="190" y="190" width="760" height="230" as="geometry" />
        </mxCell>
        <mxCell id="vINaqY3IlHrTI5j5xs9M-2" value="" style="shape=tableRow;horizontal=0;swimlaneHead=0;swimlaneBody=0;top=0;left=0;strokeColor=inherit;bottom=0;right=0;dropTarget=0;fontStyle=0;fillColor=none;points=[[0,0.5],[1,0.5]];portConstraint=eastwest;startSize=40;collapsible=0;recursiveResize=0;expand=0;" vertex="1" parent="vINaqY3IlHrTI5j5xs9M-1">
          <mxGeometry width="760" height="17" as="geometry" />
        </mxCell>
        <mxCell id="vINaqY3IlHrTI5j5xs9M-3" value="order id" style="swimlane;swimlaneHead=0;swimlaneBody=0;fontStyle=0;strokeColor=inherit;connectable=0;fillColor=none;startSize=40;collapsible=0;recursiveResize=0;expand=0;" vertex="1" parent="vINaqY3IlHrTI5j5xs9M-2">
          <mxGeometry x="40" width="72" height="17" as="geometry">
            <mxRectangle width="72" height="17" as="alternateBounds" />
          </mxGeometry>
        </mxCell>
        <mxCell id="vINaqY3IlHrTI5j5xs9M-4" value="cus_id" style="swimlane;swimlaneHead=0;swimlaneBody=0;fontStyle=0;strokeColor=inherit;connectable=0;fillColor=none;startSize=40;collapsible=0;recursiveResize=0;expand=0;" vertex="1" parent="vINaqY3IlHrTI5j5xs9M-2">
          <mxGeometry x="112" width="72" height="17" as="geometry">
            <mxRectangle width="72" height="17" as="alternateBounds" />
          </mxGeometry>
        </mxCell>
        <mxCell id="vINaqY3IlHrTI5j5xs9M-5" value="cus last name" style="swimlane;swimlaneHead=0;swimlaneBody=0;fontStyle=0;strokeColor=inherit;connectable=0;fillColor=none;startSize=40;collapsible=0;recursiveResize=0;expand=0;" vertex="1" parent="vINaqY3IlHrTI5j5xs9M-2">
          <mxGeometry x="184" width="72" height="17" as="geometry">
            <mxRectangle width="72" height="17" as="alternateBounds" />
          </mxGeometry>
        </mxCell>
        <mxCell id="vINaqY3IlHrTI5j5xs9M-6" value="prod_id" style="swimlane;swimlaneHead=0;swimlaneBody=0;fontStyle=0;strokeColor=inherit;connectable=0;fillColor=none;startSize=40;collapsible=0;recursiveResize=0;expand=0;" vertex="1" parent="vINaqY3IlHrTI5j5xs9M-2">
          <mxGeometry x="256" width="72" height="17" as="geometry">
            <mxRectangle width="72" height="17" as="alternateBounds" />
          </mxGeometry>
        </mxCell>
        <mxCell id="vINaqY3IlHrTI5j5xs9M-7" value="prod name" style="swimlane;swimlaneHead=0;swimlaneBody=0;fontStyle=0;strokeColor=inherit;connectable=0;fillColor=none;startSize=40;collapsible=0;recursiveResize=0;expand=0;" vertex="1" parent="vINaqY3IlHrTI5j5xs9M-2">
          <mxGeometry x="328" width="72" height="17" as="geometry">
            <mxRectangle width="72" height="17" as="alternateBounds" />
          </mxGeometry>
        </mxCell>
        <mxCell id="vINaqY3IlHrTI5j5xs9M-8" value="quantity " style="swimlane;swimlaneHead=0;swimlaneBody=0;fontStyle=0;strokeColor=inherit;connectable=0;fillColor=none;startSize=40;collapsible=0;recursiveResize=0;expand=0;" vertex="1" parent="vINaqY3IlHrTI5j5xs9M-2">
          <mxGeometry x="400" width="72" height="17" as="geometry">
            <mxRectangle width="72" height="17" as="alternateBounds" />
          </mxGeometry>
        </mxCell>
        <mxCell id="vINaqY3IlHrTI5j5xs9M-9" value="date order" style="swimlane;swimlaneHead=0;swimlaneBody=0;fontStyle=0;strokeColor=inherit;connectable=0;fillColor=none;startSize=40;collapsible=0;recursiveResize=0;expand=0;" vertex="1" parent="vINaqY3IlHrTI5j5xs9M-2">
          <mxGeometry x="472" width="72" height="17" as="geometry">
            <mxRectangle width="72" height="17" as="alternateBounds" />
          </mxGeometry>
        </mxCell>
        <mxCell id="vINaqY3IlHrTI5j5xs9M-10" value="coll date" style="swimlane;swimlaneHead=0;swimlaneBody=0;fontStyle=0;strokeColor=inherit;connectable=0;fillColor=none;startSize=40;collapsible=0;recursiveResize=0;expand=0;" vertex="1" parent="vINaqY3IlHrTI5j5xs9M-2">
          <mxGeometry x="544" width="72" height="17" as="geometry">
            <mxRectangle width="72" height="17" as="alternateBounds" />
          </mxGeometry>
        </mxCell>
        <mxCell id="vINaqY3IlHrTI5j5xs9M-11" value="coll" style="swimlane;swimlaneHead=0;swimlaneBody=0;fontStyle=0;strokeColor=inherit;connectable=0;fillColor=none;startSize=40;collapsible=0;recursiveResize=0;expand=0;" vertex="1" parent="vINaqY3IlHrTI5j5xs9M-2">
          <mxGeometry x="616" width="72" height="17" as="geometry">
            <mxRectangle width="72" height="17" as="alternateBounds" />
          </mxGeometry>
        </mxCell>
        <mxCell id="vINaqY3IlHrTI5j5xs9M-12" value="update" style="swimlane;swimlaneHead=0;swimlaneBody=0;fontStyle=0;strokeColor=inherit;connectable=0;fillColor=none;startSize=40;collapsible=0;recursiveResize=0;expand=0;" vertex="1" parent="vINaqY3IlHrTI5j5xs9M-2">
          <mxGeometry x="688" width="72" height="17" as="geometry">
            <mxRectangle width="72" height="17" as="alternateBounds" />
          </mxGeometry>
        </mxCell>
        <mxCell id="vINaqY3IlHrTI5j5xs9M-13" value="" style="shape=tableRow;horizontal=0;swimlaneHead=0;swimlaneBody=0;top=0;left=0;strokeColor=inherit;bottom=0;right=0;dropTarget=0;fontStyle=0;fillColor=none;points=[[0,0.5],[1,0.5]];portConstraint=eastwest;startSize=40;collapsible=0;recursiveResize=0;expand=0;" vertex="1" parent="vINaqY3IlHrTI5j5xs9M-1">
          <mxGeometry y="17" width="760" height="20" as="geometry" />
        </mxCell>
        <mxCell id="vINaqY3IlHrTI5j5xs9M-14" value="" style="swimlane;swimlaneHead=0;swimlaneBody=0;fontStyle=0;connectable=0;strokeColor=inherit;fillColor=none;startSize=0;collapsible=0;recursiveResize=0;expand=0;" vertex="1" parent="vINaqY3IlHrTI5j5xs9M-13">
          <mxGeometry x="40" width="72" height="20" as="geometry">
            <mxRectangle width="72" height="20" as="alternateBounds" />
          </mxGeometry>
        </mxCell>
        <mxCell id="vINaqY3IlHrTI5j5xs9M-15" value="" style="swimlane;swimlaneHead=0;swimlaneBody=0;fontStyle=0;connectable=0;strokeColor=inherit;fillColor=none;startSize=0;collapsible=0;recursiveResize=0;expand=0;" vertex="1" parent="vINaqY3IlHrTI5j5xs9M-13">
          <mxGeometry x="112" width="72" height="20" as="geometry">
            <mxRectangle width="72" height="20" as="alternateBounds" />
          </mxGeometry>
        </mxCell>
        <mxCell id="vINaqY3IlHrTI5j5xs9M-16" value="" style="swimlane;swimlaneHead=0;swimlaneBody=0;fontStyle=0;connectable=0;strokeColor=inherit;fillColor=none;startSize=0;collapsible=0;recursiveResize=0;expand=0;" vertex="1" parent="vINaqY3IlHrTI5j5xs9M-13">
          <mxGeometry x="184" width="72" height="20" as="geometry">
            <mxRectangle width="72" height="20" as="alternateBounds" />
          </mxGeometry>
        </mxCell>
        <mxCell id="vINaqY3IlHrTI5j5xs9M-17" value="" style="swimlane;swimlaneHead=0;swimlaneBody=0;fontStyle=0;connectable=0;strokeColor=inherit;fillColor=none;startSize=0;collapsible=0;recursiveResize=0;expand=0;" vertex="1" parent="vINaqY3IlHrTI5j5xs9M-13">
          <mxGeometry x="256" width="72" height="20" as="geometry">
            <mxRectangle width="72" height="20" as="alternateBounds" />
          </mxGeometry>
        </mxCell>
        <mxCell id="vINaqY3IlHrTI5j5xs9M-18" value="" style="swimlane;swimlaneHead=0;swimlaneBody=0;fontStyle=0;connectable=0;strokeColor=inherit;fillColor=none;startSize=0;collapsible=0;recursiveResize=0;expand=0;" vertex="1" parent="vINaqY3IlHrTI5j5xs9M-13">
          <mxGeometry x="328" width="72" height="20" as="geometry">
            <mxRectangle width="72" height="20" as="alternateBounds" />
          </mxGeometry>
        </mxCell>
        <mxCell id="vINaqY3IlHrTI5j5xs9M-19" value="" style="swimlane;swimlaneHead=0;swimlaneBody=0;fontStyle=0;connectable=0;strokeColor=inherit;fillColor=none;startSize=0;collapsible=0;recursiveResize=0;expand=0;" vertex="1" parent="vINaqY3IlHrTI5j5xs9M-13">
          <mxGeometry x="400" width="72" height="20" as="geometry">
            <mxRectangle width="72" height="20" as="alternateBounds" />
          </mxGeometry>
        </mxCell>
        <mxCell id="vINaqY3IlHrTI5j5xs9M-20" value="" style="swimlane;swimlaneHead=0;swimlaneBody=0;fontStyle=0;connectable=0;strokeColor=inherit;fillColor=none;startSize=0;collapsible=0;recursiveResize=0;expand=0;" vertex="1" parent="vINaqY3IlHrTI5j5xs9M-13">
          <mxGeometry x="472" width="72" height="20" as="geometry">
            <mxRectangle width="72" height="20" as="alternateBounds" />
          </mxGeometry>
        </mxCell>
        <mxCell id="vINaqY3IlHrTI5j5xs9M-21" value="" style="swimlane;swimlaneHead=0;swimlaneBody=0;fontStyle=0;connectable=0;strokeColor=inherit;fillColor=none;startSize=0;collapsible=0;recursiveResize=0;expand=0;" vertex="1" parent="vINaqY3IlHrTI5j5xs9M-13">
          <mxGeometry x="544" width="72" height="20" as="geometry">
            <mxRectangle width="72" height="20" as="alternateBounds" />
          </mxGeometry>
        </mxCell>
        <mxCell id="vINaqY3IlHrTI5j5xs9M-22" value="" style="swimlane;swimlaneHead=0;swimlaneBody=0;fontStyle=0;connectable=0;strokeColor=inherit;fillColor=none;startSize=0;collapsible=0;recursiveResize=0;expand=0;" vertex="1" parent="vINaqY3IlHrTI5j5xs9M-13">
          <mxGeometry x="616" width="72" height="20" as="geometry">
            <mxRectangle width="72" height="20" as="alternateBounds" />
          </mxGeometry>
        </mxCell>
        <mxCell id="vINaqY3IlHrTI5j5xs9M-23" value="" style="swimlane;swimlaneHead=0;swimlaneBody=0;fontStyle=0;connectable=0;strokeColor=inherit;fillColor=none;startSize=0;collapsible=0;recursiveResize=0;expand=0;" vertex="1" parent="vINaqY3IlHrTI5j5xs9M-13">
          <mxGeometry x="688" width="72" height="20" as="geometry">
            <mxRectangle width="72" height="20" as="alternateBounds" />
          </mxGeometry>
        </mxCell>
        <mxCell id="vINaqY3IlHrTI5j5xs9M-24" value="" style="shape=tableRow;horizontal=0;swimlaneHead=0;swimlaneBody=0;top=0;left=0;strokeColor=inherit;bottom=0;right=0;dropTarget=0;fontStyle=0;fillColor=none;points=[[0,0.5],[1,0.5]];portConstraint=eastwest;startSize=40;collapsible=0;recursiveResize=0;expand=0;" vertex="1" parent="vINaqY3IlHrTI5j5xs9M-1">
          <mxGeometry y="37" width="760" height="19" as="geometry" />
        </mxCell>
        <mxCell id="vINaqY3IlHrTI5j5xs9M-25" value="" style="swimlane;swimlaneHead=0;swimlaneBody=0;fontStyle=0;connectable=0;strokeColor=inherit;fillColor=none;startSize=0;collapsible=0;recursiveResize=0;expand=0;" vertex="1" parent="vINaqY3IlHrTI5j5xs9M-24">
          <mxGeometry x="40" width="72" height="19" as="geometry">
            <mxRectangle width="72" height="19" as="alternateBounds" />
          </mxGeometry>
        </mxCell>
        <mxCell id="vINaqY3IlHrTI5j5xs9M-26" value="" style="swimlane;swimlaneHead=0;swimlaneBody=0;fontStyle=0;connectable=0;strokeColor=inherit;fillColor=none;startSize=0;collapsible=0;recursiveResize=0;expand=0;" vertex="1" parent="vINaqY3IlHrTI5j5xs9M-24">
          <mxGeometry x="112" width="72" height="19" as="geometry">
            <mxRectangle width="72" height="19" as="alternateBounds" />
          </mxGeometry>
        </mxCell>
        <mxCell id="vINaqY3IlHrTI5j5xs9M-27" value="" style="swimlane;swimlaneHead=0;swimlaneBody=0;fontStyle=0;connectable=0;strokeColor=inherit;fillColor=none;startSize=0;collapsible=0;recursiveResize=0;expand=0;" vertex="1" parent="vINaqY3IlHrTI5j5xs9M-24">
          <mxGeometry x="184" width="72" height="19" as="geometry">
            <mxRectangle width="72" height="19" as="alternateBounds" />
          </mxGeometry>
        </mxCell>
        <mxCell id="vINaqY3IlHrTI5j5xs9M-28" value="" style="swimlane;swimlaneHead=0;swimlaneBody=0;fontStyle=0;connectable=0;strokeColor=inherit;fillColor=none;startSize=0;collapsible=0;recursiveResize=0;expand=0;" vertex="1" parent="vINaqY3IlHrTI5j5xs9M-24">
          <mxGeometry x="256" width="72" height="19" as="geometry">
            <mxRectangle width="72" height="19" as="alternateBounds" />
          </mxGeometry>
        </mxCell>
        <mxCell id="vINaqY3IlHrTI5j5xs9M-29" value="" style="swimlane;swimlaneHead=0;swimlaneBody=0;fontStyle=0;connectable=0;strokeColor=inherit;fillColor=none;startSize=0;collapsible=0;recursiveResize=0;expand=0;" vertex="1" parent="vINaqY3IlHrTI5j5xs9M-24">
          <mxGeometry x="328" width="72" height="19" as="geometry">
            <mxRectangle width="72" height="19" as="alternateBounds" />
          </mxGeometry>
        </mxCell>
        <mxCell id="vINaqY3IlHrTI5j5xs9M-30" value="" style="swimlane;swimlaneHead=0;swimlaneBody=0;fontStyle=0;connectable=0;strokeColor=inherit;fillColor=none;startSize=0;collapsible=0;recursiveResize=0;expand=0;" vertex="1" parent="vINaqY3IlHrTI5j5xs9M-24">
          <mxGeometry x="400" width="72" height="19" as="geometry">
            <mxRectangle width="72" height="19" as="alternateBounds" />
          </mxGeometry>
        </mxCell>
        <mxCell id="vINaqY3IlHrTI5j5xs9M-31" value="" style="swimlane;swimlaneHead=0;swimlaneBody=0;fontStyle=0;connectable=0;strokeColor=inherit;fillColor=none;startSize=0;collapsible=0;recursiveResize=0;expand=0;" vertex="1" parent="vINaqY3IlHrTI5j5xs9M-24">
          <mxGeometry x="472" width="72" height="19" as="geometry">
            <mxRectangle width="72" height="19" as="alternateBounds" />
          </mxGeometry>
        </mxCell>
        <mxCell id="vINaqY3IlHrTI5j5xs9M-32" value="" style="swimlane;swimlaneHead=0;swimlaneBody=0;fontStyle=0;connectable=0;strokeColor=inherit;fillColor=none;startSize=0;collapsible=0;recursiveResize=0;expand=0;" vertex="1" parent="vINaqY3IlHrTI5j5xs9M-24">
          <mxGeometry x="544" width="72" height="19" as="geometry">
            <mxRectangle width="72" height="19" as="alternateBounds" />
          </mxGeometry>
        </mxCell>
        <mxCell id="vINaqY3IlHrTI5j5xs9M-33" value="" style="swimlane;swimlaneHead=0;swimlaneBody=0;fontStyle=0;connectable=0;strokeColor=inherit;fillColor=none;startSize=0;collapsible=0;recursiveResize=0;expand=0;" vertex="1" parent="vINaqY3IlHrTI5j5xs9M-24">
          <mxGeometry x="616" width="72" height="19" as="geometry">
            <mxRectangle width="72" height="19" as="alternateBounds" />
          </mxGeometry>
        </mxCell>
        <mxCell id="vINaqY3IlHrTI5j5xs9M-34" value="" style="swimlane;swimlaneHead=0;swimlaneBody=0;fontStyle=0;connectable=0;strokeColor=inherit;fillColor=none;startSize=0;collapsible=0;recursiveResize=0;expand=0;" vertex="1" parent="vINaqY3IlHrTI5j5xs9M-24">
          <mxGeometry x="688" width="72" height="19" as="geometry">
            <mxRectangle width="72" height="19" as="alternateBounds" />
          </mxGeometry>
        </mxCell>
        <mxCell id="vINaqY3IlHrTI5j5xs9M-35" value="" style="shape=tableRow;horizontal=0;swimlaneHead=0;swimlaneBody=0;top=0;left=0;strokeColor=inherit;bottom=0;right=0;dropTarget=0;fontStyle=0;fillColor=none;points=[[0,0.5],[1,0.5]];portConstraint=eastwest;startSize=40;collapsible=0;recursiveResize=0;expand=0;" vertex="1" parent="vINaqY3IlHrTI5j5xs9M-1">
          <mxGeometry y="56" width="760" height="19" as="geometry" />
        </mxCell>
        <mxCell id="vINaqY3IlHrTI5j5xs9M-36" value="" style="swimlane;swimlaneHead=0;swimlaneBody=0;fontStyle=0;connectable=0;strokeColor=inherit;fillColor=none;startSize=0;collapsible=0;recursiveResize=0;expand=0;" vertex="1" parent="vINaqY3IlHrTI5j5xs9M-35">
          <mxGeometry x="40" width="72" height="19" as="geometry">
            <mxRectangle width="72" height="19" as="alternateBounds" />
          </mxGeometry>
        </mxCell>
        <mxCell id="vINaqY3IlHrTI5j5xs9M-37" value="" style="swimlane;swimlaneHead=0;swimlaneBody=0;fontStyle=0;connectable=0;strokeColor=inherit;fillColor=none;startSize=0;collapsible=0;recursiveResize=0;expand=0;" vertex="1" parent="vINaqY3IlHrTI5j5xs9M-35">
          <mxGeometry x="112" width="72" height="19" as="geometry">
            <mxRectangle width="72" height="19" as="alternateBounds" />
          </mxGeometry>
        </mxCell>
        <mxCell id="vINaqY3IlHrTI5j5xs9M-38" value="" style="swimlane;swimlaneHead=0;swimlaneBody=0;fontStyle=0;connectable=0;strokeColor=inherit;fillColor=none;startSize=0;collapsible=0;recursiveResize=0;expand=0;" vertex="1" parent="vINaqY3IlHrTI5j5xs9M-35">
          <mxGeometry x="184" width="72" height="19" as="geometry">
            <mxRectangle width="72" height="19" as="alternateBounds" />
          </mxGeometry>
        </mxCell>
        <mxCell id="vINaqY3IlHrTI5j5xs9M-39" value="" style="swimlane;swimlaneHead=0;swimlaneBody=0;fontStyle=0;connectable=0;strokeColor=inherit;fillColor=none;startSize=0;collapsible=0;recursiveResize=0;expand=0;" vertex="1" parent="vINaqY3IlHrTI5j5xs9M-35">
          <mxGeometry x="256" width="72" height="19" as="geometry">
            <mxRectangle width="72" height="19" as="alternateBounds" />
          </mxGeometry>
        </mxCell>
        <mxCell id="vINaqY3IlHrTI5j5xs9M-40" value="" style="swimlane;swimlaneHead=0;swimlaneBody=0;fontStyle=0;connectable=0;strokeColor=inherit;fillColor=none;startSize=0;collapsible=0;recursiveResize=0;expand=0;" vertex="1" parent="vINaqY3IlHrTI5j5xs9M-35">
          <mxGeometry x="328" width="72" height="19" as="geometry">
            <mxRectangle width="72" height="19" as="alternateBounds" />
          </mxGeometry>
        </mxCell>
        <mxCell id="vINaqY3IlHrTI5j5xs9M-41" value="" style="swimlane;swimlaneHead=0;swimlaneBody=0;fontStyle=0;connectable=0;strokeColor=inherit;fillColor=none;startSize=0;collapsible=0;recursiveResize=0;expand=0;" vertex="1" parent="vINaqY3IlHrTI5j5xs9M-35">
          <mxGeometry x="400" width="72" height="19" as="geometry">
            <mxRectangle width="72" height="19" as="alternateBounds" />
          </mxGeometry>
        </mxCell>
        <mxCell id="vINaqY3IlHrTI5j5xs9M-42" value="" style="swimlane;swimlaneHead=0;swimlaneBody=0;fontStyle=0;connectable=0;strokeColor=inherit;fillColor=none;startSize=0;collapsible=0;recursiveResize=0;expand=0;" vertex="1" parent="vINaqY3IlHrTI5j5xs9M-35">
          <mxGeometry x="472" width="72" height="19" as="geometry">
            <mxRectangle width="72" height="19" as="alternateBounds" />
          </mxGeometry>
        </mxCell>
        <mxCell id="vINaqY3IlHrTI5j5xs9M-43" value="" style="swimlane;swimlaneHead=0;swimlaneBody=0;fontStyle=0;connectable=0;strokeColor=inherit;fillColor=none;startSize=0;collapsible=0;recursiveResize=0;expand=0;" vertex="1" parent="vINaqY3IlHrTI5j5xs9M-35">
          <mxGeometry x="544" width="72" height="19" as="geometry">
            <mxRectangle width="72" height="19" as="alternateBounds" />
          </mxGeometry>
        </mxCell>
        <mxCell id="vINaqY3IlHrTI5j5xs9M-44" value="" style="swimlane;swimlaneHead=0;swimlaneBody=0;fontStyle=0;connectable=0;strokeColor=inherit;fillColor=none;startSize=0;collapsible=0;recursiveResize=0;expand=0;" vertex="1" parent="vINaqY3IlHrTI5j5xs9M-35">
          <mxGeometry x="616" width="72" height="19" as="geometry">
            <mxRectangle width="72" height="19" as="alternateBounds" />
          </mxGeometry>
        </mxCell>
        <mxCell id="vINaqY3IlHrTI5j5xs9M-45" value="" style="swimlane;swimlaneHead=0;swimlaneBody=0;fontStyle=0;connectable=0;strokeColor=inherit;fillColor=none;startSize=0;collapsible=0;recursiveResize=0;expand=0;" vertex="1" parent="vINaqY3IlHrTI5j5xs9M-35">
          <mxGeometry x="688" width="72" height="19" as="geometry">
            <mxRectangle width="72" height="19" as="alternateBounds" />
          </mxGeometry>
        </mxCell>
        <mxCell id="vINaqY3IlHrTI5j5xs9M-46" value="" style="shape=tableRow;horizontal=0;swimlaneHead=0;swimlaneBody=0;top=0;left=0;strokeColor=inherit;bottom=0;right=0;dropTarget=0;fontStyle=0;fillColor=none;points=[[0,0.5],[1,0.5]];portConstraint=eastwest;startSize=40;collapsible=0;recursiveResize=0;expand=0;" vertex="1" parent="vINaqY3IlHrTI5j5xs9M-1">
          <mxGeometry y="75" width="760" height="20" as="geometry" />
        </mxCell>
        <mxCell id="vINaqY3IlHrTI5j5xs9M-47" value="" style="swimlane;swimlaneHead=0;swimlaneBody=0;fontStyle=0;connectable=0;strokeColor=inherit;fillColor=none;startSize=0;collapsible=0;recursiveResize=0;expand=0;" vertex="1" parent="vINaqY3IlHrTI5j5xs9M-46">
          <mxGeometry x="40" width="72" height="20" as="geometry">
            <mxRectangle width="72" height="20" as="alternateBounds" />
          </mxGeometry>
        </mxCell>
        <mxCell id="vINaqY3IlHrTI5j5xs9M-48" value="" style="swimlane;swimlaneHead=0;swimlaneBody=0;fontStyle=0;connectable=0;strokeColor=inherit;fillColor=none;startSize=0;collapsible=0;recursiveResize=0;expand=0;" vertex="1" parent="vINaqY3IlHrTI5j5xs9M-46">
          <mxGeometry x="112" width="72" height="20" as="geometry">
            <mxRectangle width="72" height="20" as="alternateBounds" />
          </mxGeometry>
        </mxCell>
        <mxCell id="vINaqY3IlHrTI5j5xs9M-49" value="" style="swimlane;swimlaneHead=0;swimlaneBody=0;fontStyle=0;connectable=0;strokeColor=inherit;fillColor=none;startSize=0;collapsible=0;recursiveResize=0;expand=0;" vertex="1" parent="vINaqY3IlHrTI5j5xs9M-46">
          <mxGeometry x="184" width="72" height="20" as="geometry">
            <mxRectangle width="72" height="20" as="alternateBounds" />
          </mxGeometry>
        </mxCell>
        <mxCell id="vINaqY3IlHrTI5j5xs9M-50" value="" style="swimlane;swimlaneHead=0;swimlaneBody=0;fontStyle=0;connectable=0;strokeColor=inherit;fillColor=none;startSize=0;collapsible=0;recursiveResize=0;expand=0;" vertex="1" parent="vINaqY3IlHrTI5j5xs9M-46">
          <mxGeometry x="256" width="72" height="20" as="geometry">
            <mxRectangle width="72" height="20" as="alternateBounds" />
          </mxGeometry>
        </mxCell>
        <mxCell id="vINaqY3IlHrTI5j5xs9M-51" value="" style="swimlane;swimlaneHead=0;swimlaneBody=0;fontStyle=0;connectable=0;strokeColor=inherit;fillColor=none;startSize=0;collapsible=0;recursiveResize=0;expand=0;" vertex="1" parent="vINaqY3IlHrTI5j5xs9M-46">
          <mxGeometry x="328" width="72" height="20" as="geometry">
            <mxRectangle width="72" height="20" as="alternateBounds" />
          </mxGeometry>
        </mxCell>
        <mxCell id="vINaqY3IlHrTI5j5xs9M-52" value="" style="swimlane;swimlaneHead=0;swimlaneBody=0;fontStyle=0;connectable=0;strokeColor=inherit;fillColor=none;startSize=0;collapsible=0;recursiveResize=0;expand=0;" vertex="1" parent="vINaqY3IlHrTI5j5xs9M-46">
          <mxGeometry x="400" width="72" height="20" as="geometry">
            <mxRectangle width="72" height="20" as="alternateBounds" />
          </mxGeometry>
        </mxCell>
        <mxCell id="vINaqY3IlHrTI5j5xs9M-53" value="" style="swimlane;swimlaneHead=0;swimlaneBody=0;fontStyle=0;connectable=0;strokeColor=inherit;fillColor=none;startSize=0;collapsible=0;recursiveResize=0;expand=0;" vertex="1" parent="vINaqY3IlHrTI5j5xs9M-46">
          <mxGeometry x="472" width="72" height="20" as="geometry">
            <mxRectangle width="72" height="20" as="alternateBounds" />
          </mxGeometry>
        </mxCell>
        <mxCell id="vINaqY3IlHrTI5j5xs9M-54" value="" style="swimlane;swimlaneHead=0;swimlaneBody=0;fontStyle=0;connectable=0;strokeColor=inherit;fillColor=none;startSize=0;collapsible=0;recursiveResize=0;expand=0;" vertex="1" parent="vINaqY3IlHrTI5j5xs9M-46">
          <mxGeometry x="544" width="72" height="20" as="geometry">
            <mxRectangle width="72" height="20" as="alternateBounds" />
          </mxGeometry>
        </mxCell>
        <mxCell id="vINaqY3IlHrTI5j5xs9M-55" value="" style="swimlane;swimlaneHead=0;swimlaneBody=0;fontStyle=0;connectable=0;strokeColor=inherit;fillColor=none;startSize=0;collapsible=0;recursiveResize=0;expand=0;" vertex="1" parent="vINaqY3IlHrTI5j5xs9M-46">
          <mxGeometry x="616" width="72" height="20" as="geometry">
            <mxRectangle width="72" height="20" as="alternateBounds" />
          </mxGeometry>
        </mxCell>
        <mxCell id="vINaqY3IlHrTI5j5xs9M-56" value="" style="swimlane;swimlaneHead=0;swimlaneBody=0;fontStyle=0;connectable=0;strokeColor=inherit;fillColor=none;startSize=0;collapsible=0;recursiveResize=0;expand=0;" vertex="1" parent="vINaqY3IlHrTI5j5xs9M-46">
          <mxGeometry x="688" width="72" height="20" as="geometry">
            <mxRectangle width="72" height="20" as="alternateBounds" />
          </mxGeometry>
        </mxCell>
        <mxCell id="vINaqY3IlHrTI5j5xs9M-57" value="" style="shape=tableRow;horizontal=0;swimlaneHead=0;swimlaneBody=0;top=0;left=0;strokeColor=inherit;bottom=0;right=0;dropTarget=0;fontStyle=0;fillColor=none;points=[[0,0.5],[1,0.5]];portConstraint=eastwest;startSize=40;collapsible=0;recursiveResize=0;expand=0;" vertex="1" parent="vINaqY3IlHrTI5j5xs9M-1">
          <mxGeometry y="95" width="760" height="19" as="geometry" />
        </mxCell>
        <mxCell id="vINaqY3IlHrTI5j5xs9M-58" value="" style="swimlane;swimlaneHead=0;swimlaneBody=0;fontStyle=0;connectable=0;strokeColor=inherit;fillColor=none;startSize=0;collapsible=0;recursiveResize=0;expand=0;" vertex="1" parent="vINaqY3IlHrTI5j5xs9M-57">
          <mxGeometry x="40" width="72" height="19" as="geometry">
            <mxRectangle width="72" height="19" as="alternateBounds" />
          </mxGeometry>
        </mxCell>
        <mxCell id="vINaqY3IlHrTI5j5xs9M-59" value="" style="swimlane;swimlaneHead=0;swimlaneBody=0;fontStyle=0;connectable=0;strokeColor=inherit;fillColor=none;startSize=0;collapsible=0;recursiveResize=0;expand=0;" vertex="1" parent="vINaqY3IlHrTI5j5xs9M-57">
          <mxGeometry x="112" width="72" height="19" as="geometry">
            <mxRectangle width="72" height="19" as="alternateBounds" />
          </mxGeometry>
        </mxCell>
        <mxCell id="vINaqY3IlHrTI5j5xs9M-60" value="" style="swimlane;swimlaneHead=0;swimlaneBody=0;fontStyle=0;connectable=0;strokeColor=inherit;fillColor=none;startSize=0;collapsible=0;recursiveResize=0;expand=0;" vertex="1" parent="vINaqY3IlHrTI5j5xs9M-57">
          <mxGeometry x="184" width="72" height="19" as="geometry">
            <mxRectangle width="72" height="19" as="alternateBounds" />
          </mxGeometry>
        </mxCell>
        <mxCell id="vINaqY3IlHrTI5j5xs9M-61" value="" style="swimlane;swimlaneHead=0;swimlaneBody=0;fontStyle=0;connectable=0;strokeColor=inherit;fillColor=none;startSize=0;collapsible=0;recursiveResize=0;expand=0;" vertex="1" parent="vINaqY3IlHrTI5j5xs9M-57">
          <mxGeometry x="256" width="72" height="19" as="geometry">
            <mxRectangle width="72" height="19" as="alternateBounds" />
          </mxGeometry>
        </mxCell>
        <mxCell id="vINaqY3IlHrTI5j5xs9M-62" value="" style="swimlane;swimlaneHead=0;swimlaneBody=0;fontStyle=0;connectable=0;strokeColor=inherit;fillColor=none;startSize=0;collapsible=0;recursiveResize=0;expand=0;" vertex="1" parent="vINaqY3IlHrTI5j5xs9M-57">
          <mxGeometry x="328" width="72" height="19" as="geometry">
            <mxRectangle width="72" height="19" as="alternateBounds" />
          </mxGeometry>
        </mxCell>
        <mxCell id="vINaqY3IlHrTI5j5xs9M-63" value="" style="swimlane;swimlaneHead=0;swimlaneBody=0;fontStyle=0;connectable=0;strokeColor=inherit;fillColor=none;startSize=0;collapsible=0;recursiveResize=0;expand=0;" vertex="1" parent="vINaqY3IlHrTI5j5xs9M-57">
          <mxGeometry x="400" width="72" height="19" as="geometry">
            <mxRectangle width="72" height="19" as="alternateBounds" />
          </mxGeometry>
        </mxCell>
        <mxCell id="vINaqY3IlHrTI5j5xs9M-64" value="" style="swimlane;swimlaneHead=0;swimlaneBody=0;fontStyle=0;connectable=0;strokeColor=inherit;fillColor=none;startSize=0;collapsible=0;recursiveResize=0;expand=0;" vertex="1" parent="vINaqY3IlHrTI5j5xs9M-57">
          <mxGeometry x="472" width="72" height="19" as="geometry">
            <mxRectangle width="72" height="19" as="alternateBounds" />
          </mxGeometry>
        </mxCell>
        <mxCell id="vINaqY3IlHrTI5j5xs9M-65" value="" style="swimlane;swimlaneHead=0;swimlaneBody=0;fontStyle=0;connectable=0;strokeColor=inherit;fillColor=none;startSize=0;collapsible=0;recursiveResize=0;expand=0;" vertex="1" parent="vINaqY3IlHrTI5j5xs9M-57">
          <mxGeometry x="544" width="72" height="19" as="geometry">
            <mxRectangle width="72" height="19" as="alternateBounds" />
          </mxGeometry>
        </mxCell>
        <mxCell id="vINaqY3IlHrTI5j5xs9M-66" value="" style="swimlane;swimlaneHead=0;swimlaneBody=0;fontStyle=0;connectable=0;strokeColor=inherit;fillColor=none;startSize=0;collapsible=0;recursiveResize=0;expand=0;" vertex="1" parent="vINaqY3IlHrTI5j5xs9M-57">
          <mxGeometry x="616" width="72" height="19" as="geometry">
            <mxRectangle width="72" height="19" as="alternateBounds" />
          </mxGeometry>
        </mxCell>
        <mxCell id="vINaqY3IlHrTI5j5xs9M-67" value="" style="swimlane;swimlaneHead=0;swimlaneBody=0;fontStyle=0;connectable=0;strokeColor=inherit;fillColor=none;startSize=0;collapsible=0;recursiveResize=0;expand=0;" vertex="1" parent="vINaqY3IlHrTI5j5xs9M-57">
          <mxGeometry x="688" width="72" height="19" as="geometry">
            <mxRectangle width="72" height="19" as="alternateBounds" />
          </mxGeometry>
        </mxCell>
        <mxCell id="vINaqY3IlHrTI5j5xs9M-68" value="" style="shape=tableRow;horizontal=0;swimlaneHead=0;swimlaneBody=0;top=0;left=0;strokeColor=inherit;bottom=0;right=0;dropTarget=0;fontStyle=0;fillColor=none;points=[[0,0.5],[1,0.5]];portConstraint=eastwest;startSize=40;collapsible=0;recursiveResize=0;expand=0;" vertex="1" parent="vINaqY3IlHrTI5j5xs9M-1">
          <mxGeometry y="114" width="760" height="19" as="geometry" />
        </mxCell>
        <mxCell id="vINaqY3IlHrTI5j5xs9M-69" value="" style="swimlane;swimlaneHead=0;swimlaneBody=0;fontStyle=0;connectable=0;strokeColor=inherit;fillColor=none;startSize=0;collapsible=0;recursiveResize=0;expand=0;" vertex="1" parent="vINaqY3IlHrTI5j5xs9M-68">
          <mxGeometry x="40" width="72" height="19" as="geometry">
            <mxRectangle width="72" height="19" as="alternateBounds" />
          </mxGeometry>
        </mxCell>
        <mxCell id="vINaqY3IlHrTI5j5xs9M-70" value="" style="swimlane;swimlaneHead=0;swimlaneBody=0;fontStyle=0;connectable=0;strokeColor=inherit;fillColor=none;startSize=0;collapsible=0;recursiveResize=0;expand=0;" vertex="1" parent="vINaqY3IlHrTI5j5xs9M-68">
          <mxGeometry x="112" width="72" height="19" as="geometry">
            <mxRectangle width="72" height="19" as="alternateBounds" />
          </mxGeometry>
        </mxCell>
        <mxCell id="vINaqY3IlHrTI5j5xs9M-71" value="" style="swimlane;swimlaneHead=0;swimlaneBody=0;fontStyle=0;connectable=0;strokeColor=inherit;fillColor=none;startSize=0;collapsible=0;recursiveResize=0;expand=0;" vertex="1" parent="vINaqY3IlHrTI5j5xs9M-68">
          <mxGeometry x="184" width="72" height="19" as="geometry">
            <mxRectangle width="72" height="19" as="alternateBounds" />
          </mxGeometry>
        </mxCell>
        <mxCell id="vINaqY3IlHrTI5j5xs9M-72" value="" style="swimlane;swimlaneHead=0;swimlaneBody=0;fontStyle=0;connectable=0;strokeColor=inherit;fillColor=none;startSize=0;collapsible=0;recursiveResize=0;expand=0;" vertex="1" parent="vINaqY3IlHrTI5j5xs9M-68">
          <mxGeometry x="256" width="72" height="19" as="geometry">
            <mxRectangle width="72" height="19" as="alternateBounds" />
          </mxGeometry>
        </mxCell>
        <mxCell id="vINaqY3IlHrTI5j5xs9M-73" value="" style="swimlane;swimlaneHead=0;swimlaneBody=0;fontStyle=0;connectable=0;strokeColor=inherit;fillColor=none;startSize=0;collapsible=0;recursiveResize=0;expand=0;" vertex="1" parent="vINaqY3IlHrTI5j5xs9M-68">
          <mxGeometry x="328" width="72" height="19" as="geometry">
            <mxRectangle width="72" height="19" as="alternateBounds" />
          </mxGeometry>
        </mxCell>
        <mxCell id="vINaqY3IlHrTI5j5xs9M-74" value="" style="swimlane;swimlaneHead=0;swimlaneBody=0;fontStyle=0;connectable=0;strokeColor=inherit;fillColor=none;startSize=0;collapsible=0;recursiveResize=0;expand=0;" vertex="1" parent="vINaqY3IlHrTI5j5xs9M-68">
          <mxGeometry x="400" width="72" height="19" as="geometry">
            <mxRectangle width="72" height="19" as="alternateBounds" />
          </mxGeometry>
        </mxCell>
        <mxCell id="vINaqY3IlHrTI5j5xs9M-75" value="" style="swimlane;swimlaneHead=0;swimlaneBody=0;fontStyle=0;connectable=0;strokeColor=inherit;fillColor=none;startSize=0;collapsible=0;recursiveResize=0;expand=0;" vertex="1" parent="vINaqY3IlHrTI5j5xs9M-68">
          <mxGeometry x="472" width="72" height="19" as="geometry">
            <mxRectangle width="72" height="19" as="alternateBounds" />
          </mxGeometry>
        </mxCell>
        <mxCell id="vINaqY3IlHrTI5j5xs9M-76" value="" style="swimlane;swimlaneHead=0;swimlaneBody=0;fontStyle=0;connectable=0;strokeColor=inherit;fillColor=none;startSize=0;collapsible=0;recursiveResize=0;expand=0;" vertex="1" parent="vINaqY3IlHrTI5j5xs9M-68">
          <mxGeometry x="544" width="72" height="19" as="geometry">
            <mxRectangle width="72" height="19" as="alternateBounds" />
          </mxGeometry>
        </mxCell>
        <mxCell id="vINaqY3IlHrTI5j5xs9M-77" value="" style="swimlane;swimlaneHead=0;swimlaneBody=0;fontStyle=0;connectable=0;strokeColor=inherit;fillColor=none;startSize=0;collapsible=0;recursiveResize=0;expand=0;" vertex="1" parent="vINaqY3IlHrTI5j5xs9M-68">
          <mxGeometry x="616" width="72" height="19" as="geometry">
            <mxRectangle width="72" height="19" as="alternateBounds" />
          </mxGeometry>
        </mxCell>
        <mxCell id="vINaqY3IlHrTI5j5xs9M-78" value="" style="swimlane;swimlaneHead=0;swimlaneBody=0;fontStyle=0;connectable=0;strokeColor=inherit;fillColor=none;startSize=0;collapsible=0;recursiveResize=0;expand=0;" vertex="1" parent="vINaqY3IlHrTI5j5xs9M-68">
          <mxGeometry x="688" width="72" height="19" as="geometry">
            <mxRectangle width="72" height="19" as="alternateBounds" />
          </mxGeometry>
        </mxCell>
        <mxCell id="vINaqY3IlHrTI5j5xs9M-79" value="" style="shape=tableRow;horizontal=0;swimlaneHead=0;swimlaneBody=0;top=0;left=0;strokeColor=inherit;bottom=0;right=0;dropTarget=0;fontStyle=0;fillColor=none;points=[[0,0.5],[1,0.5]];portConstraint=eastwest;startSize=40;collapsible=0;recursiveResize=0;expand=0;" vertex="1" parent="vINaqY3IlHrTI5j5xs9M-1">
          <mxGeometry y="133" width="760" height="20" as="geometry" />
        </mxCell>
        <mxCell id="vINaqY3IlHrTI5j5xs9M-80" value="" style="swimlane;swimlaneHead=0;swimlaneBody=0;fontStyle=0;connectable=0;strokeColor=inherit;fillColor=none;startSize=0;collapsible=0;recursiveResize=0;expand=0;" vertex="1" parent="vINaqY3IlHrTI5j5xs9M-79">
          <mxGeometry x="40" width="72" height="20" as="geometry">
            <mxRectangle width="72" height="20" as="alternateBounds" />
          </mxGeometry>
        </mxCell>
        <mxCell id="vINaqY3IlHrTI5j5xs9M-81" value="" style="swimlane;swimlaneHead=0;swimlaneBody=0;fontStyle=0;connectable=0;strokeColor=inherit;fillColor=none;startSize=0;collapsible=0;recursiveResize=0;expand=0;" vertex="1" parent="vINaqY3IlHrTI5j5xs9M-79">
          <mxGeometry x="112" width="72" height="20" as="geometry">
            <mxRectangle width="72" height="20" as="alternateBounds" />
          </mxGeometry>
        </mxCell>
        <mxCell id="vINaqY3IlHrTI5j5xs9M-82" value="" style="swimlane;swimlaneHead=0;swimlaneBody=0;fontStyle=0;connectable=0;strokeColor=inherit;fillColor=none;startSize=0;collapsible=0;recursiveResize=0;expand=0;" vertex="1" parent="vINaqY3IlHrTI5j5xs9M-79">
          <mxGeometry x="184" width="72" height="20" as="geometry">
            <mxRectangle width="72" height="20" as="alternateBounds" />
          </mxGeometry>
        </mxCell>
        <mxCell id="vINaqY3IlHrTI5j5xs9M-83" value="" style="swimlane;swimlaneHead=0;swimlaneBody=0;fontStyle=0;connectable=0;strokeColor=inherit;fillColor=none;startSize=0;collapsible=0;recursiveResize=0;expand=0;" vertex="1" parent="vINaqY3IlHrTI5j5xs9M-79">
          <mxGeometry x="256" width="72" height="20" as="geometry">
            <mxRectangle width="72" height="20" as="alternateBounds" />
          </mxGeometry>
        </mxCell>
        <mxCell id="vINaqY3IlHrTI5j5xs9M-84" value="" style="swimlane;swimlaneHead=0;swimlaneBody=0;fontStyle=0;connectable=0;strokeColor=inherit;fillColor=none;startSize=0;collapsible=0;recursiveResize=0;expand=0;" vertex="1" parent="vINaqY3IlHrTI5j5xs9M-79">
          <mxGeometry x="328" width="72" height="20" as="geometry">
            <mxRectangle width="72" height="20" as="alternateBounds" />
          </mxGeometry>
        </mxCell>
        <mxCell id="vINaqY3IlHrTI5j5xs9M-85" value="" style="swimlane;swimlaneHead=0;swimlaneBody=0;fontStyle=0;connectable=0;strokeColor=inherit;fillColor=none;startSize=0;collapsible=0;recursiveResize=0;expand=0;" vertex="1" parent="vINaqY3IlHrTI5j5xs9M-79">
          <mxGeometry x="400" width="72" height="20" as="geometry">
            <mxRectangle width="72" height="20" as="alternateBounds" />
          </mxGeometry>
        </mxCell>
        <mxCell id="vINaqY3IlHrTI5j5xs9M-86" value="" style="swimlane;swimlaneHead=0;swimlaneBody=0;fontStyle=0;connectable=0;strokeColor=inherit;fillColor=none;startSize=0;collapsible=0;recursiveResize=0;expand=0;" vertex="1" parent="vINaqY3IlHrTI5j5xs9M-79">
          <mxGeometry x="472" width="72" height="20" as="geometry">
            <mxRectangle width="72" height="20" as="alternateBounds" />
          </mxGeometry>
        </mxCell>
        <mxCell id="vINaqY3IlHrTI5j5xs9M-87" value="" style="swimlane;swimlaneHead=0;swimlaneBody=0;fontStyle=0;connectable=0;strokeColor=inherit;fillColor=none;startSize=0;collapsible=0;recursiveResize=0;expand=0;" vertex="1" parent="vINaqY3IlHrTI5j5xs9M-79">
          <mxGeometry x="544" width="72" height="20" as="geometry">
            <mxRectangle width="72" height="20" as="alternateBounds" />
          </mxGeometry>
        </mxCell>
        <mxCell id="vINaqY3IlHrTI5j5xs9M-88" value="" style="swimlane;swimlaneHead=0;swimlaneBody=0;fontStyle=0;connectable=0;strokeColor=inherit;fillColor=none;startSize=0;collapsible=0;recursiveResize=0;expand=0;" vertex="1" parent="vINaqY3IlHrTI5j5xs9M-79">
          <mxGeometry x="616" width="72" height="20" as="geometry">
            <mxRectangle width="72" height="20" as="alternateBounds" />
          </mxGeometry>
        </mxCell>
        <mxCell id="vINaqY3IlHrTI5j5xs9M-89" value="" style="swimlane;swimlaneHead=0;swimlaneBody=0;fontStyle=0;connectable=0;strokeColor=inherit;fillColor=none;startSize=0;collapsible=0;recursiveResize=0;expand=0;" vertex="1" parent="vINaqY3IlHrTI5j5xs9M-79">
          <mxGeometry x="688" width="72" height="20" as="geometry">
            <mxRectangle width="72" height="20" as="alternateBounds" />
          </mxGeometry>
        </mxCell>
        <mxCell id="vINaqY3IlHrTI5j5xs9M-90" value="" style="shape=tableRow;horizontal=0;swimlaneHead=0;swimlaneBody=0;top=0;left=0;strokeColor=inherit;bottom=0;right=0;dropTarget=0;fontStyle=0;fillColor=none;points=[[0,0.5],[1,0.5]];portConstraint=eastwest;startSize=40;collapsible=0;recursiveResize=0;expand=0;" vertex="1" parent="vINaqY3IlHrTI5j5xs9M-1">
          <mxGeometry y="153" width="760" height="19" as="geometry" />
        </mxCell>
        <mxCell id="vINaqY3IlHrTI5j5xs9M-91" value="" style="swimlane;swimlaneHead=0;swimlaneBody=0;fontStyle=0;connectable=0;strokeColor=inherit;fillColor=none;startSize=0;collapsible=0;recursiveResize=0;expand=0;" vertex="1" parent="vINaqY3IlHrTI5j5xs9M-90">
          <mxGeometry x="40" width="72" height="19" as="geometry">
            <mxRectangle width="72" height="19" as="alternateBounds" />
          </mxGeometry>
        </mxCell>
        <mxCell id="vINaqY3IlHrTI5j5xs9M-92" value="" style="swimlane;swimlaneHead=0;swimlaneBody=0;fontStyle=0;connectable=0;strokeColor=inherit;fillColor=none;startSize=0;collapsible=0;recursiveResize=0;expand=0;" vertex="1" parent="vINaqY3IlHrTI5j5xs9M-90">
          <mxGeometry x="112" width="72" height="19" as="geometry">
            <mxRectangle width="72" height="19" as="alternateBounds" />
          </mxGeometry>
        </mxCell>
        <mxCell id="vINaqY3IlHrTI5j5xs9M-93" value="" style="swimlane;swimlaneHead=0;swimlaneBody=0;fontStyle=0;connectable=0;strokeColor=inherit;fillColor=none;startSize=0;collapsible=0;recursiveResize=0;expand=0;" vertex="1" parent="vINaqY3IlHrTI5j5xs9M-90">
          <mxGeometry x="184" width="72" height="19" as="geometry">
            <mxRectangle width="72" height="19" as="alternateBounds" />
          </mxGeometry>
        </mxCell>
        <mxCell id="vINaqY3IlHrTI5j5xs9M-94" value="" style="swimlane;swimlaneHead=0;swimlaneBody=0;fontStyle=0;connectable=0;strokeColor=inherit;fillColor=none;startSize=0;collapsible=0;recursiveResize=0;expand=0;" vertex="1" parent="vINaqY3IlHrTI5j5xs9M-90">
          <mxGeometry x="256" width="72" height="19" as="geometry">
            <mxRectangle width="72" height="19" as="alternateBounds" />
          </mxGeometry>
        </mxCell>
        <mxCell id="vINaqY3IlHrTI5j5xs9M-95" value="" style="swimlane;swimlaneHead=0;swimlaneBody=0;fontStyle=0;connectable=0;strokeColor=inherit;fillColor=none;startSize=0;collapsible=0;recursiveResize=0;expand=0;" vertex="1" parent="vINaqY3IlHrTI5j5xs9M-90">
          <mxGeometry x="328" width="72" height="19" as="geometry">
            <mxRectangle width="72" height="19" as="alternateBounds" />
          </mxGeometry>
        </mxCell>
        <mxCell id="vINaqY3IlHrTI5j5xs9M-96" value="" style="swimlane;swimlaneHead=0;swimlaneBody=0;fontStyle=0;connectable=0;strokeColor=inherit;fillColor=none;startSize=0;collapsible=0;recursiveResize=0;expand=0;" vertex="1" parent="vINaqY3IlHrTI5j5xs9M-90">
          <mxGeometry x="400" width="72" height="19" as="geometry">
            <mxRectangle width="72" height="19" as="alternateBounds" />
          </mxGeometry>
        </mxCell>
        <mxCell id="vINaqY3IlHrTI5j5xs9M-97" value="" style="swimlane;swimlaneHead=0;swimlaneBody=0;fontStyle=0;connectable=0;strokeColor=inherit;fillColor=none;startSize=0;collapsible=0;recursiveResize=0;expand=0;" vertex="1" parent="vINaqY3IlHrTI5j5xs9M-90">
          <mxGeometry x="472" width="72" height="19" as="geometry">
            <mxRectangle width="72" height="19" as="alternateBounds" />
          </mxGeometry>
        </mxCell>
        <mxCell id="vINaqY3IlHrTI5j5xs9M-98" value="" style="swimlane;swimlaneHead=0;swimlaneBody=0;fontStyle=0;connectable=0;strokeColor=inherit;fillColor=none;startSize=0;collapsible=0;recursiveResize=0;expand=0;" vertex="1" parent="vINaqY3IlHrTI5j5xs9M-90">
          <mxGeometry x="544" width="72" height="19" as="geometry">
            <mxRectangle width="72" height="19" as="alternateBounds" />
          </mxGeometry>
        </mxCell>
        <mxCell id="vINaqY3IlHrTI5j5xs9M-99" value="" style="swimlane;swimlaneHead=0;swimlaneBody=0;fontStyle=0;connectable=0;strokeColor=inherit;fillColor=none;startSize=0;collapsible=0;recursiveResize=0;expand=0;" vertex="1" parent="vINaqY3IlHrTI5j5xs9M-90">
          <mxGeometry x="616" width="72" height="19" as="geometry">
            <mxRectangle width="72" height="19" as="alternateBounds" />
          </mxGeometry>
        </mxCell>
        <mxCell id="vINaqY3IlHrTI5j5xs9M-100" value="" style="swimlane;swimlaneHead=0;swimlaneBody=0;fontStyle=0;connectable=0;strokeColor=inherit;fillColor=none;startSize=0;collapsible=0;recursiveResize=0;expand=0;" vertex="1" parent="vINaqY3IlHrTI5j5xs9M-90">
          <mxGeometry x="688" width="72" height="19" as="geometry">
            <mxRectangle width="72" height="19" as="alternateBounds" />
          </mxGeometry>
        </mxCell>
        <mxCell id="vINaqY3IlHrTI5j5xs9M-101" value="" style="shape=tableRow;horizontal=0;swimlaneHead=0;swimlaneBody=0;top=0;left=0;strokeColor=inherit;bottom=0;right=0;dropTarget=0;fontStyle=0;fillColor=none;points=[[0,0.5],[1,0.5]];portConstraint=eastwest;startSize=40;collapsible=0;recursiveResize=0;expand=0;" vertex="1" parent="vINaqY3IlHrTI5j5xs9M-1">
          <mxGeometry y="172" width="760" height="19" as="geometry" />
        </mxCell>
        <mxCell id="vINaqY3IlHrTI5j5xs9M-102" value="" style="swimlane;swimlaneHead=0;swimlaneBody=0;fontStyle=0;connectable=0;strokeColor=inherit;fillColor=none;startSize=0;collapsible=0;recursiveResize=0;expand=0;" vertex="1" parent="vINaqY3IlHrTI5j5xs9M-101">
          <mxGeometry x="40" width="72" height="19" as="geometry">
            <mxRectangle width="72" height="19" as="alternateBounds" />
          </mxGeometry>
        </mxCell>
        <mxCell id="vINaqY3IlHrTI5j5xs9M-103" value="" style="swimlane;swimlaneHead=0;swimlaneBody=0;fontStyle=0;connectable=0;strokeColor=inherit;fillColor=none;startSize=0;collapsible=0;recursiveResize=0;expand=0;" vertex="1" parent="vINaqY3IlHrTI5j5xs9M-101">
          <mxGeometry x="112" width="72" height="19" as="geometry">
            <mxRectangle width="72" height="19" as="alternateBounds" />
          </mxGeometry>
        </mxCell>
        <mxCell id="vINaqY3IlHrTI5j5xs9M-104" value="" style="swimlane;swimlaneHead=0;swimlaneBody=0;fontStyle=0;connectable=0;strokeColor=inherit;fillColor=none;startSize=0;collapsible=0;recursiveResize=0;expand=0;" vertex="1" parent="vINaqY3IlHrTI5j5xs9M-101">
          <mxGeometry x="184" width="72" height="19" as="geometry">
            <mxRectangle width="72" height="19" as="alternateBounds" />
          </mxGeometry>
        </mxCell>
        <mxCell id="vINaqY3IlHrTI5j5xs9M-105" value="" style="swimlane;swimlaneHead=0;swimlaneBody=0;fontStyle=0;connectable=0;strokeColor=inherit;fillColor=none;startSize=0;collapsible=0;recursiveResize=0;expand=0;" vertex="1" parent="vINaqY3IlHrTI5j5xs9M-101">
          <mxGeometry x="256" width="72" height="19" as="geometry">
            <mxRectangle width="72" height="19" as="alternateBounds" />
          </mxGeometry>
        </mxCell>
        <mxCell id="vINaqY3IlHrTI5j5xs9M-106" value="" style="swimlane;swimlaneHead=0;swimlaneBody=0;fontStyle=0;connectable=0;strokeColor=inherit;fillColor=none;startSize=0;collapsible=0;recursiveResize=0;expand=0;" vertex="1" parent="vINaqY3IlHrTI5j5xs9M-101">
          <mxGeometry x="328" width="72" height="19" as="geometry">
            <mxRectangle width="72" height="19" as="alternateBounds" />
          </mxGeometry>
        </mxCell>
        <mxCell id="vINaqY3IlHrTI5j5xs9M-107" value="" style="swimlane;swimlaneHead=0;swimlaneBody=0;fontStyle=0;connectable=0;strokeColor=inherit;fillColor=none;startSize=0;collapsible=0;recursiveResize=0;expand=0;" vertex="1" parent="vINaqY3IlHrTI5j5xs9M-101">
          <mxGeometry x="400" width="72" height="19" as="geometry">
            <mxRectangle width="72" height="19" as="alternateBounds" />
          </mxGeometry>
        </mxCell>
        <mxCell id="vINaqY3IlHrTI5j5xs9M-108" value="" style="swimlane;swimlaneHead=0;swimlaneBody=0;fontStyle=0;connectable=0;strokeColor=inherit;fillColor=none;startSize=0;collapsible=0;recursiveResize=0;expand=0;" vertex="1" parent="vINaqY3IlHrTI5j5xs9M-101">
          <mxGeometry x="472" width="72" height="19" as="geometry">
            <mxRectangle width="72" height="19" as="alternateBounds" />
          </mxGeometry>
        </mxCell>
        <mxCell id="vINaqY3IlHrTI5j5xs9M-109" value="" style="swimlane;swimlaneHead=0;swimlaneBody=0;fontStyle=0;connectable=0;strokeColor=inherit;fillColor=none;startSize=0;collapsible=0;recursiveResize=0;expand=0;" vertex="1" parent="vINaqY3IlHrTI5j5xs9M-101">
          <mxGeometry x="544" width="72" height="19" as="geometry">
            <mxRectangle width="72" height="19" as="alternateBounds" />
          </mxGeometry>
        </mxCell>
        <mxCell id="vINaqY3IlHrTI5j5xs9M-110" value="" style="swimlane;swimlaneHead=0;swimlaneBody=0;fontStyle=0;connectable=0;strokeColor=inherit;fillColor=none;startSize=0;collapsible=0;recursiveResize=0;expand=0;" vertex="1" parent="vINaqY3IlHrTI5j5xs9M-101">
          <mxGeometry x="616" width="72" height="19" as="geometry">
            <mxRectangle width="72" height="19" as="alternateBounds" />
          </mxGeometry>
        </mxCell>
        <mxCell id="vINaqY3IlHrTI5j5xs9M-111" value="" style="swimlane;swimlaneHead=0;swimlaneBody=0;fontStyle=0;connectable=0;strokeColor=inherit;fillColor=none;startSize=0;collapsible=0;recursiveResize=0;expand=0;" vertex="1" parent="vINaqY3IlHrTI5j5xs9M-101">
          <mxGeometry x="688" width="72" height="19" as="geometry">
            <mxRectangle width="72" height="19" as="alternateBounds" />
          </mxGeometry>
        </mxCell>
        <mxCell id="vINaqY3IlHrTI5j5xs9M-112" value="" style="shape=tableRow;horizontal=0;swimlaneHead=0;swimlaneBody=0;top=0;left=0;strokeColor=inherit;bottom=0;right=0;dropTarget=0;fontStyle=0;fillColor=none;points=[[0,0.5],[1,0.5]];portConstraint=eastwest;startSize=40;collapsible=0;recursiveResize=0;expand=0;" vertex="1" parent="vINaqY3IlHrTI5j5xs9M-1">
          <mxGeometry y="191" width="760" height="20" as="geometry" />
        </mxCell>
        <mxCell id="vINaqY3IlHrTI5j5xs9M-113" value="" style="swimlane;swimlaneHead=0;swimlaneBody=0;fontStyle=0;connectable=0;strokeColor=inherit;fillColor=none;startSize=0;collapsible=0;recursiveResize=0;expand=0;" vertex="1" parent="vINaqY3IlHrTI5j5xs9M-112">
          <mxGeometry x="40" width="72" height="20" as="geometry">
            <mxRectangle width="72" height="20" as="alternateBounds" />
          </mxGeometry>
        </mxCell>
        <mxCell id="vINaqY3IlHrTI5j5xs9M-114" value="" style="swimlane;swimlaneHead=0;swimlaneBody=0;fontStyle=0;connectable=0;strokeColor=inherit;fillColor=none;startSize=0;collapsible=0;recursiveResize=0;expand=0;" vertex="1" parent="vINaqY3IlHrTI5j5xs9M-112">
          <mxGeometry x="112" width="72" height="20" as="geometry">
            <mxRectangle width="72" height="20" as="alternateBounds" />
          </mxGeometry>
        </mxCell>
        <mxCell id="vINaqY3IlHrTI5j5xs9M-115" value="" style="swimlane;swimlaneHead=0;swimlaneBody=0;fontStyle=0;connectable=0;strokeColor=inherit;fillColor=none;startSize=0;collapsible=0;recursiveResize=0;expand=0;" vertex="1" parent="vINaqY3IlHrTI5j5xs9M-112">
          <mxGeometry x="184" width="72" height="20" as="geometry">
            <mxRectangle width="72" height="20" as="alternateBounds" />
          </mxGeometry>
        </mxCell>
        <mxCell id="vINaqY3IlHrTI5j5xs9M-116" value="" style="swimlane;swimlaneHead=0;swimlaneBody=0;fontStyle=0;connectable=0;strokeColor=inherit;fillColor=none;startSize=0;collapsible=0;recursiveResize=0;expand=0;" vertex="1" parent="vINaqY3IlHrTI5j5xs9M-112">
          <mxGeometry x="256" width="72" height="20" as="geometry">
            <mxRectangle width="72" height="20" as="alternateBounds" />
          </mxGeometry>
        </mxCell>
        <mxCell id="vINaqY3IlHrTI5j5xs9M-117" value="" style="swimlane;swimlaneHead=0;swimlaneBody=0;fontStyle=0;connectable=0;strokeColor=inherit;fillColor=none;startSize=0;collapsible=0;recursiveResize=0;expand=0;" vertex="1" parent="vINaqY3IlHrTI5j5xs9M-112">
          <mxGeometry x="328" width="72" height="20" as="geometry">
            <mxRectangle width="72" height="20" as="alternateBounds" />
          </mxGeometry>
        </mxCell>
        <mxCell id="vINaqY3IlHrTI5j5xs9M-118" value="" style="swimlane;swimlaneHead=0;swimlaneBody=0;fontStyle=0;connectable=0;strokeColor=inherit;fillColor=none;startSize=0;collapsible=0;recursiveResize=0;expand=0;" vertex="1" parent="vINaqY3IlHrTI5j5xs9M-112">
          <mxGeometry x="400" width="72" height="20" as="geometry">
            <mxRectangle width="72" height="20" as="alternateBounds" />
          </mxGeometry>
        </mxCell>
        <mxCell id="vINaqY3IlHrTI5j5xs9M-119" value="" style="swimlane;swimlaneHead=0;swimlaneBody=0;fontStyle=0;connectable=0;strokeColor=inherit;fillColor=none;startSize=0;collapsible=0;recursiveResize=0;expand=0;" vertex="1" parent="vINaqY3IlHrTI5j5xs9M-112">
          <mxGeometry x="472" width="72" height="20" as="geometry">
            <mxRectangle width="72" height="20" as="alternateBounds" />
          </mxGeometry>
        </mxCell>
        <mxCell id="vINaqY3IlHrTI5j5xs9M-120" value="" style="swimlane;swimlaneHead=0;swimlaneBody=0;fontStyle=0;connectable=0;strokeColor=inherit;fillColor=none;startSize=0;collapsible=0;recursiveResize=0;expand=0;" vertex="1" parent="vINaqY3IlHrTI5j5xs9M-112">
          <mxGeometry x="544" width="72" height="20" as="geometry">
            <mxRectangle width="72" height="20" as="alternateBounds" />
          </mxGeometry>
        </mxCell>
        <mxCell id="vINaqY3IlHrTI5j5xs9M-121" value="" style="swimlane;swimlaneHead=0;swimlaneBody=0;fontStyle=0;connectable=0;strokeColor=inherit;fillColor=none;startSize=0;collapsible=0;recursiveResize=0;expand=0;" vertex="1" parent="vINaqY3IlHrTI5j5xs9M-112">
          <mxGeometry x="616" width="72" height="20" as="geometry">
            <mxRectangle width="72" height="20" as="alternateBounds" />
          </mxGeometry>
        </mxCell>
        <mxCell id="vINaqY3IlHrTI5j5xs9M-122" value="" style="swimlane;swimlaneHead=0;swimlaneBody=0;fontStyle=0;connectable=0;strokeColor=inherit;fillColor=none;startSize=0;collapsible=0;recursiveResize=0;expand=0;" vertex="1" parent="vINaqY3IlHrTI5j5xs9M-112">
          <mxGeometry x="688" width="72" height="20" as="geometry">
            <mxRectangle width="72" height="20" as="alternateBounds" />
          </mxGeometry>
        </mxCell>
        <mxCell id="vINaqY3IlHrTI5j5xs9M-123" value="" style="shape=tableRow;horizontal=0;swimlaneHead=0;swimlaneBody=0;top=0;left=0;strokeColor=inherit;bottom=0;right=0;dropTarget=0;fontStyle=0;fillColor=none;points=[[0,0.5],[1,0.5]];portConstraint=eastwest;startSize=40;collapsible=0;recursiveResize=0;expand=0;" vertex="1" parent="vINaqY3IlHrTI5j5xs9M-1">
          <mxGeometry y="211" width="760" height="19" as="geometry" />
        </mxCell>
        <mxCell id="vINaqY3IlHrTI5j5xs9M-124" value="" style="swimlane;swimlaneHead=0;swimlaneBody=0;fontStyle=0;connectable=0;strokeColor=inherit;fillColor=none;startSize=0;collapsible=0;recursiveResize=0;expand=0;" vertex="1" parent="vINaqY3IlHrTI5j5xs9M-123">
          <mxGeometry x="40" width="72" height="19" as="geometry">
            <mxRectangle width="72" height="19" as="alternateBounds" />
          </mxGeometry>
        </mxCell>
        <mxCell id="vINaqY3IlHrTI5j5xs9M-125" value="" style="swimlane;swimlaneHead=0;swimlaneBody=0;fontStyle=0;connectable=0;strokeColor=inherit;fillColor=none;startSize=0;collapsible=0;recursiveResize=0;expand=0;" vertex="1" parent="vINaqY3IlHrTI5j5xs9M-123">
          <mxGeometry x="112" width="72" height="19" as="geometry">
            <mxRectangle width="72" height="19" as="alternateBounds" />
          </mxGeometry>
        </mxCell>
        <mxCell id="vINaqY3IlHrTI5j5xs9M-126" value="" style="swimlane;swimlaneHead=0;swimlaneBody=0;fontStyle=0;connectable=0;strokeColor=inherit;fillColor=none;startSize=0;collapsible=0;recursiveResize=0;expand=0;" vertex="1" parent="vINaqY3IlHrTI5j5xs9M-123">
          <mxGeometry x="184" width="72" height="19" as="geometry">
            <mxRectangle width="72" height="19" as="alternateBounds" />
          </mxGeometry>
        </mxCell>
        <mxCell id="vINaqY3IlHrTI5j5xs9M-127" value="" style="swimlane;swimlaneHead=0;swimlaneBody=0;fontStyle=0;connectable=0;strokeColor=inherit;fillColor=none;startSize=0;collapsible=0;recursiveResize=0;expand=0;" vertex="1" parent="vINaqY3IlHrTI5j5xs9M-123">
          <mxGeometry x="256" width="72" height="19" as="geometry">
            <mxRectangle width="72" height="19" as="alternateBounds" />
          </mxGeometry>
        </mxCell>
        <mxCell id="vINaqY3IlHrTI5j5xs9M-128" value="" style="swimlane;swimlaneHead=0;swimlaneBody=0;fontStyle=0;connectable=0;strokeColor=inherit;fillColor=none;startSize=0;collapsible=0;recursiveResize=0;expand=0;" vertex="1" parent="vINaqY3IlHrTI5j5xs9M-123">
          <mxGeometry x="328" width="72" height="19" as="geometry">
            <mxRectangle width="72" height="19" as="alternateBounds" />
          </mxGeometry>
        </mxCell>
        <mxCell id="vINaqY3IlHrTI5j5xs9M-129" value="" style="swimlane;swimlaneHead=0;swimlaneBody=0;fontStyle=0;connectable=0;strokeColor=inherit;fillColor=none;startSize=0;collapsible=0;recursiveResize=0;expand=0;" vertex="1" parent="vINaqY3IlHrTI5j5xs9M-123">
          <mxGeometry x="400" width="72" height="19" as="geometry">
            <mxRectangle width="72" height="19" as="alternateBounds" />
          </mxGeometry>
        </mxCell>
        <mxCell id="vINaqY3IlHrTI5j5xs9M-130" value="" style="swimlane;swimlaneHead=0;swimlaneBody=0;fontStyle=0;connectable=0;strokeColor=inherit;fillColor=none;startSize=0;collapsible=0;recursiveResize=0;expand=0;" vertex="1" parent="vINaqY3IlHrTI5j5xs9M-123">
          <mxGeometry x="472" width="72" height="19" as="geometry">
            <mxRectangle width="72" height="19" as="alternateBounds" />
          </mxGeometry>
        </mxCell>
        <mxCell id="vINaqY3IlHrTI5j5xs9M-131" value="" style="swimlane;swimlaneHead=0;swimlaneBody=0;fontStyle=0;connectable=0;strokeColor=inherit;fillColor=none;startSize=0;collapsible=0;recursiveResize=0;expand=0;" vertex="1" parent="vINaqY3IlHrTI5j5xs9M-123">
          <mxGeometry x="544" width="72" height="19" as="geometry">
            <mxRectangle width="72" height="19" as="alternateBounds" />
          </mxGeometry>
        </mxCell>
        <mxCell id="vINaqY3IlHrTI5j5xs9M-132" value="" style="swimlane;swimlaneHead=0;swimlaneBody=0;fontStyle=0;connectable=0;strokeColor=inherit;fillColor=none;startSize=0;collapsible=0;recursiveResize=0;expand=0;" vertex="1" parent="vINaqY3IlHrTI5j5xs9M-123">
          <mxGeometry x="616" width="72" height="19" as="geometry">
            <mxRectangle width="72" height="19" as="alternateBounds" />
          </mxGeometry>
        </mxCell>
        <mxCell id="vINaqY3IlHrTI5j5xs9M-133" value="" style="swimlane;swimlaneHead=0;swimlaneBody=0;fontStyle=0;connectable=0;strokeColor=inherit;fillColor=none;startSize=0;collapsible=0;recursiveResize=0;expand=0;" vertex="1" parent="vINaqY3IlHrTI5j5xs9M-123">
          <mxGeometry x="688" width="72" height="19" as="geometry">
            <mxRectangle width="72" height="19" as="alternateBounds" />
          </mxGeometry>
        </mxCell>
        <mxCell id="vINaqY3IlHrTI5j5xs9M-134" value="clicking directs to editable form containing order details" style="shape=callout;whiteSpace=wrap;html=1;perimeter=calloutPerimeter;" vertex="1" parent="1">
          <mxGeometry x="830" y="115" width="170" height="110" as="geometry" />
        </mxCell>
        <mxCell id="vINaqY3IlHrTI5j5xs9M-135" value="all headings sortable or pref filterable" style="shape=callout;whiteSpace=wrap;html=1;perimeter=calloutPerimeter;" vertex="1" parent="1">
          <mxGeometry x="380" y="120" width="120" height="80" as="geometry" />
        </mxCell>
      </root>
    </mxGraphModel>
  </diagram>
</mxfile>
